<svg xmlns="http://www.w3.org/2000/svg" width="128" height="128" viewBox="0 0 128 128"><defs><style>.a{fill:#36b545;}</style></defs><path class="a" d="M24.2529,19.908a59.2787,59.2787,0,0,1,79.4941,0l3.2625-3.2625a63.888,63.888,0,0,0-86.0191,0Z"/><path class="a" d="M111.3541,20.99l-3.2625,3.2625a59.2786,59.2786,0,0,1,0,79.4944l3.2622,3.2625a63.8875,63.8875,0,0,0,0-86.0194"/><path class="a" d="M103.7471,108.0917a59.2783,59.2783,0,0,1-79.4945,0l-3.2621,3.2625a63.8871,63.8871,0,0,0,86.0191,0Z"/><path class="a" d="M19.9081,103.7471a59.2792,59.2792,0,0,1,0-79.4945L16.6459,20.99a63.8881,63.8881,0,0,0,0,86.02Z"/><path class="a" d="M26.4225,71.6779H20.997a6.938,6.938,0,0,1-5.31-1.9333A7.3494,7.3494,0,0,1,13.872,64.501q0-4.2566,2.6-5.9939a7.9684,7.9684,0,0,1,4.5248-1.15h5.4255v2.8871H21.502a4.6445,4.6445,0,0,0-2.7095.5886,2.7023,2.7023,0,0,0-.7849,2.237h8.4149v2.9421h-8.47a2.7611,2.7611,0,0,0,.7238,2.1895,4.4684,4.4684,0,0,0,2.798.6159h4.9478Z"/><path class="a" d="M79.8117,71.6767H69.8042a4.3945,4.3945,0,0,1-3.2121-1.1219,4.1152,4.1152,0,0,1-1.1459-3.0837A4.0374,4.0374,0,0,1,66.789,64.059a7.161,7.161,0,0,1,4.2769-1.0126h4.9718a2.7862,2.7862,0,0,0-.7029-2.2085,4.4133,4.4133,0,0,0-2.7077-.5883H66.4V57.3638h7.6266a7.5742,7.5742,0,0,1,3.4932.643q2.2926,1.2308,2.2924,4.7045ZM76.065,68.9V65.7888H71.6219a4.2622,4.2622,0,0,0-1.6248.2191,1.3574,1.3574,0,0,0-.6955,1.35,1.3272,1.3272,0,0,0,.5287,1.1788,2.66,2.66,0,0,0,1.5115.3628Z"/><path class="a" d="M95.1943,64.3455a8.1241,8.1241,0,0,1-1.2835,4.6013,6.2925,6.2925,0,0,1-5.6258,2.73H81.1293V52.07h3.6646v5.2974l3.2754-.012a7.2541,7.2541,0,0,1,5.28,1.7637,6.97,6.97,0,0,1,1.8451,5.2261m-3.8554.1923a4.606,4.606,0,0,0-.7852-2.9491,4.2059,4.2059,0,0,0-3.4392-1.207H84.7939v8.3731h2.293a4.1907,4.1907,0,0,0,3.3851-1.2343,4.547,4.547,0,0,0,.8669-2.9827"/><rect class="a" x="96.5054" y="52.0798" width="3.7737" height="19.5974"/><path class="a" d="M114.1279,71.6763h-5.4262a6.9352,6.9352,0,0,1-5.3087-1.9323,7.3474,7.3474,0,0,1-1.8159-5.2427q0-4.2537,2.6-5.992a7.9705,7.9705,0,0,1,4.5245-1.149h5.4262v2.8862h-4.9214a4.6391,4.6391,0,0,0-2.709.5886,2.7009,2.7009,0,0,0-.7849,2.2365h8.4153V66.013h-8.47a2.76,2.76,0,0,0,.7231,2.1889,4.4753,4.4753,0,0,0,2.7977.6153h4.9488Z"/><path class="a" d="M39.7158,57.8682s2.7243,4.2244,9.8855,1.7523c0,0,1.7689-.5324,7.6106-4.0993a11.496,11.496,0,0,1,8.7059-1.5956s-3.2859-3.4416-9.5485-.9385-8.8459,6.6334-16.6535,4.8811"/><path class="a" d="M60.65,64.8732c-6.3988,2.3-9.0389,6.0937-17.016,4.4843,0,0,2.7832,3.88,10.1,1.6094,0,0,1.8076-.4884,7.7766-3.7654a10.6849,10.6849,0,0,1,3.4253-1.37,4.5087,4.5087,0,0,1,.8006-1.7833,12.956,12.956,0,0,0-5.087.8254"/><path class="a" d="M61.7332,57.6106c-5.1641,1.1974-8.0614,3.9362-13.7929,5.8921a12.1692,12.1692,0,0,1-11.2845-1.8275c4.7055,6.1219,11.6867,4.8111,14.3842,3.9119s6.2172-3.692,11.3825-5.1076a11.6967,11.6967,0,0,1,3.3129-.2279l.0028-2.89a20.4935,20.4935,0,0,0-4.005.2489"/><path class="a" d="M39.1261,58.3266a7.4617,7.4617,0,0,0-4.3746-.9625l-6.9744-.01V71.678l3.63-.0022V60.4829h3.0232a3.0018,3.0018,0,0,1,2.0619.5754,6.053,6.053,0,0,0,.5794.4672l.0052.0037a14.04,14.04,0,0,0,3.5842,1.6337V62.578q0-3.0777-1.5354-4.2514M36.97,62.7811V71.678l3.692-.0022V65.5625a11.66,11.66,0,0,1-3.692-2.7814"/></svg>